<svg width="18" height="20" viewBox="0 0 18 20" fill="none" xmlns="http://www.w3.org/2000/svg">
<path fill-rule="evenodd" clip-rule="evenodd" d="M0.666656 8.25396C0.666656 4.15773 4.0027 0.833252 8.11319 0.833252C12.2237 0.833252 15.5597 4.15773 15.5597 8.25396C15.5597 10.1906 14.814 11.9547 13.5934 13.2766L17.3333 17.8223L15.688 19.1666L11.945 14.6171C10.8253 15.2884 9.51425 15.6747 8.11319 15.6747C4.0027 15.6747 0.666656 12.3502 0.666656 8.25396ZM2.15596 8.25396C2.15596 11.5339 4.82182 14.1905 8.11319 14.1905C11.4046 14.1905 14.0704 11.5339 14.0704 8.25396C14.0704 4.97401 11.4046 2.31739 8.11319 2.31739C4.82182 2.31739 2.15596 4.97401 2.15596 8.25396Z" fill="black" fill-opacity="0.4"/>
</svg>
